<svg width="99" height="22" viewBox="0 0 99 22" fill="none" xmlns="http://www.w3.org/2000/svg">
<path d="M9.10188 15.4206H35.8007V21.2951H0V0.734312H34.2837V6.60881H9.10188V8.07744H30.0362V13.9519H9.10188V15.4206Z" fill="#020002"/>
<path d="M39.9781 8.07744H53.6309V13.9519H39.9781V8.07744Z" fill="#020002"/>
<path d="M87.0765 6.60881H70.3594C69.8335 6.60881 69.5706 6.85358 69.5706 7.34312C69.5706 7.83267 69.8234 8.07744 70.3291 8.07744H82.4346C84.9022 8.07744 87.1473 8.20472 89.17 8.45928C91.2128 8.69426 92.9624 9.08589 94.4187 9.63418C95.875 10.1629 96.9976 10.8482 97.7864 11.6903C98.5955 12.5323 99 13.5505 99 14.745C99 15.5478 98.7371 16.2822 98.2112 16.9479C97.6853 17.6137 96.947 18.2207 95.9964 18.769C95.066 19.2977 93.9636 19.7677 92.6894 20.1789C91.4151 20.5901 90.0296 20.9328 88.5328 21.2069C87.0361 21.4615 85.4584 21.6573 83.7999 21.7944C82.1413 21.9315 80.4726 22 78.7938 22C77.0746 22 75.3655 21.9315 73.6664 21.7944C71.9876 21.6573 70.3797 21.4517 68.8424 21.1776C67.3052 20.8838 65.8793 20.5314 64.5646 20.1202C63.2498 19.6894 62.1071 19.1998 61.1362 18.6515C60.1855 18.0837 59.4372 17.4571 58.8911 16.7717C58.3652 16.0668 58.1022 15.2933 58.1022 14.4513H67.8109C67.8109 14.6275 67.8716 14.7842 67.9929 14.9212C68.1345 15.0387 68.3064 15.1366 68.5087 15.215C68.711 15.2737 68.9233 15.3227 69.1458 15.3618C69.3886 15.401 69.6009 15.4206 69.783 15.4206H87.5013C88.007 15.4206 88.2598 15.1758 88.2598 14.6862C88.2598 14.1967 87.9968 13.9519 87.471 13.9519H71.1483C70.4808 13.9324 69.7122 13.8834 68.8424 13.8051C67.9727 13.7072 67.0827 13.5701 66.1726 13.3939C65.2624 13.2176 64.3623 12.9826 63.4723 12.6889C62.6026 12.3952 61.8239 12.0231 61.1362 11.5728C60.4485 11.1224 59.8923 10.5937 59.4675 9.98665C59.0428 9.37962 58.8304 8.66489 58.8304 7.84246C58.8304 6.53048 59.3967 5.38496 60.5294 4.40587C61.6823 3.42679 63.1993 2.61415 65.0803 1.96796C66.9614 1.30218 69.0953 0.812639 71.482 0.499333C73.8889 0.166444 76.3464 0 78.8545 0C80.5131 0 82.1514 0.0783268 83.7695 0.23498C85.4079 0.372052 86.9653 0.587449 88.4418 0.881174C89.9184 1.15532 91.2836 1.50779 92.5377 1.93858C93.7917 2.3498 94.8738 2.83934 95.784 3.40721C96.7144 3.97508 97.4426 4.61148 97.9685 5.31642C98.4943 6.00178 98.7573 6.76547 98.7573 7.60748H89.0486C89.0486 7.43124 88.9778 7.28438 88.8362 7.16689C88.7149 7.02982 88.5531 6.92212 88.3508 6.84379C88.1485 6.76546 87.926 6.70672 87.6833 6.66756C87.4608 6.62839 87.2586 6.60881 87.0765 6.60881Z" fill="#020002"/>
</svg>
